<svg xmlns="http://www.w3.org/2000/svg" viewBox="0 0 640 400" width="640" height="400" direction="rtl">
<defs><linearGradient id="g" x1="0" y1="0" x2="1" y2="1"><stop offset="0" stop-color="#1d3a5f"/><stop offset="1" stop-color="#0E2033"/></linearGradient>
<filter id="sh" x="-10%" y="-10%" width="130%" height="140%"><feDropShadow dx="0" dy="6" stdDeviation="6" flood-color="#000" flood-opacity=".45"/></filter></defs>
<rect width="640" height="400" fill="url(#g)"/>
<g font-family="Tajawal, 'Segoe UI', Arial, sans-serif" font-weight="700"><text x="320.0" y="52" font-size="30" fill="#F2D27C" text-anchor="middle" font-weight="800">الجدول: سجلات (صفوف) وحقول (أعمدة)</text><rect x="60" y="90" width="130" height="44" fill="#D7A93F"/><text x="125.0" y="119" font-size="19" fill="#0E2033" text-anchor="middle" font-weight="800">رقم الطالب</text><rect x="190" y="90" width="130" height="44" fill="#D7A93F"/><text x="255.0" y="119" font-size="19" fill="#0E2033" text-anchor="middle" font-weight="800">الاسم</text><rect x="320" y="90" width="130" height="44" fill="#D7A93F"/><text x="385.0" y="119" font-size="19" fill="#0E2033" text-anchor="middle" font-weight="800">الصف</text><rect x="450" y="90" width="130" height="44" fill="#D7A93F"/><text x="515.0" y="119" font-size="19" fill="#0E2033" text-anchor="middle" font-weight="800">الهاتف</text><rect x="60" y="134" width="130" height="44" fill="#ffffff08" stroke="#ffffff33"/><text x="125.0" y="163" font-size="18" fill="#fff" text-anchor="middle">101</text><rect x="190" y="134" width="130" height="44" fill="#ffffff08" stroke="#ffffff33"/><text x="255.0" y="163" font-size="18" fill="#fff" text-anchor="middle">أحمد</text><rect x="320" y="134" width="130" height="44" fill="#ffffff08" stroke="#ffffff33"/><text x="385.0" y="163" font-size="18" fill="#fff" text-anchor="middle">سادس أ</text><rect x="450" y="134" width="130" height="44" fill="#ffffff08" stroke="#ffffff33"/><text x="515.0" y="163" font-size="18" fill="#fff" text-anchor="middle">05xxxxxxxx</text><rect x="60" y="178" width="130" height="44" fill="#ffffff14" stroke="#ffffff33"/><text x="125.0" y="207" font-size="18" fill="#fff" text-anchor="middle">102</text><rect x="190" y="178" width="130" height="44" fill="#ffffff14" stroke="#ffffff33"/><text x="255.0" y="207" font-size="18" fill="#fff" text-anchor="middle">سعود</text><rect x="320" y="178" width="130" height="44" fill="#ffffff14" stroke="#ffffff33"/><text x="385.0" y="207" font-size="18" fill="#fff" text-anchor="middle">سادس ب</text><rect x="450" y="178" width="130" height="44" fill="#ffffff14" stroke="#ffffff33"/><text x="515.0" y="207" font-size="18" fill="#fff" text-anchor="middle">05xxxxxxxx</text><rect x="60" y="222" width="130" height="44" fill="#ffffff08" stroke="#ffffff33"/><text x="125.0" y="251" font-size="18" fill="#fff" text-anchor="middle">103</text><rect x="190" y="222" width="130" height="44" fill="#ffffff08" stroke="#ffffff33"/><text x="255.0" y="251" font-size="18" fill="#fff" text-anchor="middle">فهد</text><rect x="320" y="222" width="130" height="44" fill="#ffffff08" stroke="#ffffff33"/><text x="385.0" y="251" font-size="18" fill="#fff" text-anchor="middle">سادس أ</text><rect x="450" y="222" width="130" height="44" fill="#ffffff08" stroke="#ffffff33"/><text x="515.0" y="251" font-size="18" fill="#fff" text-anchor="middle">05xxxxxxxx</text><text x="110" y="300" font-size="18" fill="#F2D27C">▲ المفتاح الأساسي</text><text x="560" y="300" font-size="18" fill="#F2D27C">سجل واحد = صف ◀</text></g></svg>