<svg xmlns="http://www.w3.org/2000/svg" viewBox="0 0 640 400" width="640" height="400" direction="rtl">
<defs><linearGradient id="g" x1="0" y1="0" x2="1" y2="1"><stop offset="0" stop-color="#1d3a5f"/><stop offset="1" stop-color="#0E2033"/></linearGradient>
<filter id="sh" x="-10%" y="-10%" width="130%" height="140%"><feDropShadow dx="0" dy="6" stdDeviation="6" flood-color="#000" flood-opacity=".45"/></filter></defs>
<rect width="640" height="400" fill="url(#g)"/>
<g font-family="Tajawal, 'Segoe UI', Arial, sans-serif" font-weight="700"><text x="320.0" y="52" font-size="30" fill="#F2D27C" text-anchor="middle" font-weight="800">المخطط الانسيابي</text><ellipse cx="320" cy="95" rx="80" ry="26" fill="#59C059" filter="url(#sh)"/><text x="320" y="103" font-size="20" fill="#fff" text-anchor="middle">ابدأ</text><rect x="220" y="140" width="200" height="46" rx="6" fill="#4C97FF" filter="url(#sh)"/><text x="320" y="170" font-size="20" fill="#fff" text-anchor="middle">اغلِ الماء</text><polygon points="320,205 420,255 320,305 220,255" fill="#FFAB19" filter="url(#sh)"/><text x="320" y="262" font-size="18" fill="#fff" text-anchor="middle">هل غلى الماء؟</text><rect x="470" y="232" width="150" height="46" rx="6" fill="#4C97FF" filter="url(#sh)"/><text x="545" y="262" font-size="18" fill="#fff" text-anchor="middle">صبّ الشاي</text><ellipse cx="320" cy="355" rx="80" ry="26" fill="#d64545" filter="url(#sh)"/><text x="320" y="363" font-size="20" fill="#fff" text-anchor="middle">انتهِ</text><g stroke="#F2D27C" stroke-width="3" fill="none"><line x1="320" y1="121" x2="320" y2="140"/><line x1="320" y1="186" x2="320" y2="205"/><line x1="420" y1="255" x2="470" y2="255"/><line x1="320" y1="305" x2="320" y2="329"/><path d="M220,255 H150 V160 H220"/></g><text x="440" y="245" font-size="15" fill="#F2D27C">نعم</text><text x="160" y="240" font-size="15" fill="#F2D27C">لا</text></g></svg>